{
	"accessors" : 
	[
		{
			"bufferView" : 2,
			"byteOffset" : 0,
			"componentType" : 5126,
			"count" : 9998,
			"max" : 
			[
				1,
				1,
				1,
				1
			],
			"min" : 
			[
				5.692175545846112e-05,
				0.006584956776350737,
				0,
				1
			],
			"name" : "accessor_color_m0-PolyPaper23_-18352",
			"type" : "VEC4"
		},
		{
			"bufferView" : 2,
			"byteOffset" : 159968,
			"componentType" : 5126,
			"count" : 5082,
			"max" : 
			[
				1,
				1,
				1,
				1
			],
			"min" : 
			[
				5.692175545846112e-05,
				0.006584956776350737,
				0.006584956776350737,
				1
			],
			"name" : "accessor_color_m1-PolyPaper17_-19946",
			"type" : "VEC4"
		},
		{
			"bufferView" : 0,
			"byteOffset" : 0,
			"componentType" : 5123,
			"count" : 13758,
			"max" : 
			[
				9997
			],
			"min" : 
			[
				0
			],
			"name" : "accessor_indices_0_m0-PolyPaper23_-18352",
			"type" : "SCALAR"
		},
		{
			"bufferView" : 0,
			"byteOffset" : 27516,
			"componentType" : 5123,
			"count" : 7314,
			"max" : 
			[
				5081
			],
			"min" : 
			[
				0
			],
			"name" : "accessor_indices_0_m1-PolyPaper17_-19946",
			"type" : "SCALAR"
		},
		{
			"bufferView" : 1,
			"byteOffset" : 119976,
			"componentType" : 5126,
			"count" : 9998,
			"max" : 
			[
				0.99681,
				0.9997551,
				0.9996131
			],
			"min" : 
			[
				-0.9982179,
				-0.9995843,
				-0.999023
			],
			"name" : "accessor_normal_m0-PolyPaper23_-18352",
			"type" : "VEC3"
		},
		{
			"bufferView" : 1,
			"byteOffset" : 300936,
			"componentType" : 5126,
			"count" : 5082,
			"max" : 
			[
				0.9985927999999999,
				0.9991966,
				0.9992273
			],
			"min" : 
			[
				-0.9921322,
				-0.9990937,
				-0.999173
			],
			"name" : "accessor_normal_m1-PolyPaper17_-19946",
			"type" : "VEC3"
		},
		{
			"bufferView" : 1,
			"byteOffset" : 0,
			"componentType" : 5126,
			"count" : 9998,
			"max" : 
			[
				0.5572597,
				2.560438,
				-0.1499922
			],
			"min" : 
			[
				-0.8168905,
				1.080516,
				-1.203775
			],
			"name" : "accessor_position_m0-PolyPaper23_-18352",
			"type" : "VEC3"
		},
		{
			"bufferView" : 1,
			"byteOffset" : 239952,
			"componentType" : 5126,
			"count" : 5082,
			"max" : 
			[
				0.2692451,
				2.555864,
				-0.1853763
			],
			"min" : 
			[
				-0.6527773,
				1.143786,
				-1.22444
			],
			"name" : "accessor_position_m1-PolyPaper17_-19946",
			"type" : "VEC3"
		}
	],
	"asset" : 
	{
		"copyright" : "Unknown",
		"generator" : "glTF 1-to-2 Upgrader for Google Blocks",
		"version" : "2.0"
	},
	"bufferViews" : 
	[
		{
			"buffer" : 0,
			"byteLength" : 42144,
			"byteOffset" : 0,
			"name" : "ushortBufferView",
			"target" : 34963
		},
		{
			"buffer" : 0,
			"byteLength" : 361920,
			"byteOffset" : 42144,
			"byteStride" : 12,
			"name" : "vec3BufferView",
			"target" : 34962
		},
		{
			"buffer" : 0,
			"byteLength" : 241280,
			"byteOffset" : 404064,
			"byteStride" : 16,
			"name" : "vec4BufferView",
			"target" : 34962
		}
	],
	"buffers" : 
	[
		{
			"byteLength" : 645344,
			"name" : "model",
			"uri" : "model.bin"
		}
	],
	"materials" : 
	[
		{
			"alphaMode" : "OPAQUE",
			"doubleSided" : false,
			"name" : "BlocksPaper",
			"pbrMetallicRoughness" : 
			{
				"baseColorFactor" : 
				[
					1,
					1,
					1,
					1
				],
				"metallicFactor" : 0,
				"roughnessFactor" : 0.6
			}
		},
		{
			"alphaMode" : "BLEND",
			"doubleSided" : false,
			"name" : "BlocksGlass",
			"pbrMetallicRoughness" : 
			{
				"baseColorFactor" : 
				[
					0.2,
					0.2,
					1,
					0.3
				],
				"metallicFactor" : 1,
				"roughnessFactor" : 0.4
			}
		},
		{
			"alphaMode" : "OPAQUE",
			"doubleSided" : true,
			"name" : "BlocksGem",
			"pbrMetallicRoughness" : 
			{
				"baseColorFactor" : 
				[
					1,
					0.4,
					1,
					1
				],
				"metallicFactor" : 0,
				"roughnessFactor" : 0.1
			}
		}
	],
	"meshes" : 
	[
		{
			"name" : "mesh_m0-PolyPaper23_-18352",
			"primitives" : 
			[
				{
					"attributes" : 
					{
						"COLOR_0" : 0,
						"NORMAL" : 4,
						"POSITION" : 6
					},
					"indices" : 2,
					"material" : 0,
					"mode" : 4
				}
			]
		},
		{
			"name" : "mesh_m1-PolyPaper17_-19946",
			"primitives" : 
			[
				{
					"attributes" : 
					{
						"COLOR_0" : 1,
						"NORMAL" : 5,
						"POSITION" : 7
					},
					"indices" : 3,
					"material" : 0,
					"mode" : 4
				}
			]
		}
	],
	"nodes" : 
	[
		{
			"matrix" : 
			[
				1,
				0,
				0,
				0,
				0,
				1,
				0,
				0,
				0,
				0,
				1,
				0,
				0,
				0,
				0,
				1
			],
			"mesh" : 0,
			"name" : "node_MeshObject-905277760-PolyPaper23"
		},
		{
			"matrix" : 
			[
				1,
				0,
				0,
				0,
				0,
				1,
				0,
				0,
				0,
				0,
				1,
				0,
				0,
				0,
				0,
				1
			],
			"mesh" : 1,
			"name" : "node_MeshObject1317075648-PolyPaper17"
		}
	],
	"scene" : 0,
	"scenes" : 
	[
		{
			"extras" : {},
			"name" : "defaultScene",
			"nodes" : 
			[
				0,
				1
			]
		}
	]
}